<svg width="22" height="18" viewBox="0 0 22 18" fill="none" xmlns="http://www.w3.org/2000/svg">
<path fill-rule="evenodd" clip-rule="evenodd" d="M16.3743 9.32715C15.4021 9.32715 14.4897 9.51574 13.7222 9.83553C16.4084 10.5817 18.3101 12.3692 18.3612 14.4602C19.7598 14.288 21.2692 13.7796 21.2692 12.3938C21.2692 10.7293 19.0264 9.32715 16.3743 9.32715Z" fill="#545454"/>
<path fill-rule="evenodd" clip-rule="evenodd" d="M16.3486 8.14644H16.3657C18.1821 8.14644 19.6659 6.71972 19.6659 4.98139C19.6659 3.23485 18.1821 1.80811 16.3657 1.80811C16.0075 1.80811 15.6664 1.8655 15.3423 1.9639C15.9308 2.80027 16.2719 3.80883 16.2719 4.89939C16.2804 6.00635 15.9222 7.07231 15.2485 7.95785C15.5982 8.08085 15.9649 8.14644 16.3486 8.14644Z" fill="#545454"/>
<path fill-rule="evenodd" clip-rule="evenodd" d="M7.97401 9.82733C7.20652 9.51574 6.29406 9.32715 5.33043 9.32715C2.67832 9.32715 0.435547 10.7293 0.435547 12.3938C0.435547 13.7796 1.93642 14.2798 3.33496 14.4602C3.37759 12.3692 5.27927 10.5817 7.97401 9.82733Z" fill="#545454"/>
<path fill-rule="evenodd" clip-rule="evenodd" d="M5.33075 8.14644H5.35633C5.74008 8.14644 6.10677 8.08085 6.4564 7.95785C5.8083 7.10511 5.42455 6.04735 5.42455 4.89939C5.42455 3.80883 5.76566 2.80027 6.35407 1.9639C6.03002 1.8655 5.68891 1.80811 5.33075 1.80811C3.51435 1.80811 2.03906 3.23485 2.03906 4.98139C2.03906 6.71972 3.51435 8.14644 5.33075 8.14644Z" fill="#545454"/>
<path fill-rule="evenodd" clip-rule="evenodd" d="M10.8477 10.6694C7.46994 10.6694 4.61572 12.4373 4.61572 14.5298C4.61572 17.2357 9.30593 17.2357 10.8477 17.2357C13.5237 17.2357 17.0815 16.957 17.0815 14.5471C17.0815 12.4447 14.2264 10.6694 10.8477 10.6694Z" fill="#545454"/>
<path fill-rule="evenodd" clip-rule="evenodd" d="M10.8487 8.88925H10.8768C11.9811 8.88597 13.0181 8.46861 13.7958 7.71505C14.5744 6.96151 15.0008 5.96197 14.9965 4.90175C14.9965 2.70177 13.1366 0.912598 10.8487 0.912598C8.56155 0.912598 6.70166 2.70177 6.70166 4.90175C6.70166 7.10009 8.56155 8.88925 10.8487 8.88925Z" fill="#545454"/>
</svg>
