<svg width="20" height="20" viewBox="0 0 20 20" fill="none" xmlns="http://www.w3.org/2000/svg">
<path d="M13.3839 7.2373C9.88699 7.2373 7.04199 10.0823 7.04199 13.5793C7.04199 17.0762 9.88699 19.9212 13.3839 19.9212C16.8809 19.9212 19.7259 17.0762 19.7259 13.5793C19.7259 10.0823 16.8809 7.2373 13.3839 7.2373ZM13.3839 13.0027C14.3377 13.0027 15.1136 13.7786 15.1136 14.7323C15.1136 15.483 14.6301 16.117 13.9605 16.3558V17.615H12.8074V16.3558C12.1378 16.117 11.6543 15.483 11.6543 14.7323H12.8074C12.8074 15.0504 13.0658 15.3089 13.3839 15.3089C13.702 15.3089 13.9605 15.0504 13.9605 14.7323C13.9605 14.4142 13.702 14.1558 13.3839 14.1558C12.4302 14.1558 11.6543 13.3799 11.6543 12.4262C11.6543 11.6755 12.1378 11.0416 12.8074 10.8027V9.54347H13.9605V10.8027C14.6301 11.0416 15.1136 11.6755 15.1136 12.4262H13.9605C13.9605 12.1081 13.702 11.8496 13.3839 11.8496C13.0658 11.8496 12.8074 12.1081 12.8074 12.4262C12.8074 12.7443 13.0658 13.0027 13.3839 13.0027Z" fill="#545454"/>
<path d="M6.46521 7.23755C10.0213 7.23755 12.8072 5.71794 12.8072 3.7783C12.8072 1.83867 10.0213 0.242188 6.46521 0.242188C2.9091 0.242188 0.0463867 1.83867 0.0463867 3.7783C0.0463867 5.71794 2.9091 7.23755 6.46521 7.23755Z" fill="#545454"/>
<path d="M0.0463867 13.2168V14.1562C0.0463867 16.0958 2.9091 17.6155 6.46521 17.6155C6.66692 17.6155 6.86237 17.5969 7.06097 17.5872C6.61872 16.8918 6.2889 16.1203 6.09469 15.2954C3.52312 15.2244 1.29025 14.4342 0.0463867 13.2168Z" fill="#545454"/>
<path d="M5.91638 14.1266C5.90316 13.9453 5.88867 13.7641 5.88867 13.5794C5.88867 12.9784 5.96742 12.3967 6.10172 11.8363C3.52696 11.7665 1.29137 10.9759 0.0463867 9.75732V10.6967C0.0463867 12.5335 2.63167 13.9769 5.91638 14.1266Z" fill="#545454"/>
<path d="M6.46521 10.697C6.46582 10.697 6.46632 10.6969 6.46698 10.6969C6.84722 9.78814 7.39997 8.96892 8.0864 8.28252C7.56571 8.34833 7.02761 8.39084 6.46521 8.39084C3.72791 8.39084 1.35037 7.57457 0.0463867 6.29834V7.23776C0.0463867 9.17739 2.9091 10.697 6.46521 10.697Z" fill="#545454"/>
</svg>
